PathFileType	4	(x/y/z)	S08_P20_T05
DataRate	CameraRate	NumFrames	NumMarkers	Units	OrigDataRate	OrigDataStartFrame	OrigNumFrames
240	240	8	51	mm	240	146	388
Frame#	Time	Sternum			R.Acromium			L.Acromium			Top.Head			R.ASIS			L.ASIS			R.PSIS			L.PSIS			R.Great.Tro			L.Great.Tro			R.Iliac.Crest			L.Iliac.Crest			V.Sacral			R.Thigh.Upper.Post			R.Thigh.Lower.Ant			R.Thigh.Lower.Post			R.Thigh.Upper.Ant			R.Knee.Lat			R.Knee.Med			R.Shank.Upper.Post			R.Shank.Lower.Ant			R.Shank.Lower.Post			R.Shank.Upper.Ant			R.Ankle.Lat			R.Ankle.Med			R.Heel.Upper			R.Heel.Med			R.Heel.Lat			R.Toe.Lat			R.Toe.Med			R.Toe.Tip			L.Thigh.Upper.Post			L.Thigh.Lower.Ant			L.Thigh.Lower.Post			L.Thigh.Upper.Ant			L.Knee.Lat			L.Knee.Med			L.Shank.Upper.Post			L.Shank.Lower.Ant			L.Shank.Lower.Post			L.Shank.Upper.Ant			L.Ankle.Lat			L.Ankle.Med			L.Heel.Upper			L.Heel.Med			L.Heel.Lat			L.Toe.Lat			L.Toe.Med			L.Toe.Tip			Cervical.Spine			Back			
		X1	Y1	Z1	X2	Y2	Z2	X3	Y3	Z3	X4	Y4	Z4	X5	Y5	Z5	X6	Y6	Z6	X7	Y7	Z7	X8	Y8	Z8	X9	Y9	Z9	X10	Y10	Z10	X11	Y11	Z11	X12	Y12	Z12	X13	Y13	Z13	X14	Y14	Z14	X15	Y15	Z15	X16	Y16	Z16	X17	Y17	Z17	X18	Y18	Z18	X19	Y19	Z19	X20	Y20	Z20	X21	Y21	Z21	X22	Y22	Z22	X23	Y23	Z23	X24	Y24	Z24	X25	Y25	Z25	X26	Y26	Z26	X27	Y27	Z27	X28	Y28	Z28	X29	Y29	Z29	X30	Y30	Z30	X31	Y31	Z31	X32	Y32	Z32	X33	Y33	Z33	X34	Y34	Z34	X35	Y35	Z35	X36	Y36	Z36	X37	Y37	Z37	X38	Y38	Z38	X39	Y39	Z39	X40	Y40	Z40	X41	Y41	Z41	X42	Y42	Z42	X43	Y43	Z43	X44	Y44	Z44	X45	Y45	Z45	X46	Y46	Z46	X47	Y47	Z47	X48	Y48	Z48	X49	Y49	Z49	X50	Y50	Z50	X51	Y51	Z51	

146	0.60417	-540.56	1217.1	301.19	-657.51	1449.5	481.57	-675.24	1485.7	147.99	-652.66	1772.9	338.89	-568.05	1011.2	410.13	-571.67	1000.6	179.03	-772.45	1023.8	336.25	-768.25	1024.7	244.1	-618.74	902.06	484.07	-663.23	887.16	115.08	-665.11	1074.8	456.23	-665.55	1080.8	147.94	-785.98	983.2	291.17	-585.6	698.91	462.94	-486.71	626.67	420.03	-555.98	615.79	437.77	-510.26	716.09	444.67	-497.25	525.23	410.58	-537.18	524.11	289.89	-551.35	336.05	420.49	-491.19	276.18	388.63	-550.24	259.32	410.43	-491.68	354.12	401.64	-552.55	94.799	367.4	-525.81	113.06	289.43	-601.59	64.044	317.93	-586.43	38.045	289.98	-594.56	38.815	351.46	NaN	NaN	NaN	-401.55	50.601	279.68	-339.72	72.603	326.38	-675.38	675.02	130.77	-580.21	591.19	135.99	-649.12	587.65	140	-602.93	676.76	121.37	-637.6	495.4	147.51	-607.63	482.55	274.18	-793.38	413.04	155.65	-817.75	305.02	168.72	-849.36	366.5	172.41	-758.93	357.53	154.38	-960.98	236.29	184.59	-934.28	221.1	267.99	-1004.9	269.29	235.35	-1024.2	244.03	270.04	-1028.4	248.33	205.79	-956.75	87.958	179.04	-929.94	85.073	291.5	-888.03	40.756	244.43	-734.97	1510.3	311.32	-778.87	1226.1	309.62
147	0.60833	-535.18	1217.6	301.22	-651.67	1450.1	481.78	-669.94	1486.2	148.23	-647.04	1773.4	339.29	-562.67	1011.8	410.49	-566.4	1000.9	179.37	-767.12	1024.4	336.58	-763.04	1025	244.42	-613.59	902.75	484.52	-657.38	887.08	115.55	-659.8	1075.6	456.51	-660.29	1080.9	148.17	-780.7	983.61	291.64	-581.68	699.31	463.42	-483.25	626.46	420.42	-552.58	616.01	438.28	-506.22	716.02	445.1	-494.49	525	410.94	-534.42	524.19	290.22	-549.78	336.08	420.67	-489.92	275.85	388.79	-549.08	259.36	410.52	-489.98	353.83	401.89	-552.37	94.88	367.37	-525.52	113.1	289.45	-601.52	64.122	317.95	-586.39	38.107	289.99	-594.51	38.89	351.47	NaN	NaN	NaN	-401.46	50.354	279.61	-339.56	72.116	326.32	-666.3	674.68	130.77	-570.05	592.07	135.74	-638.91	587.6	139.84	-593.78	677.4	121.22	-625.67	495.95	147	-595.5	483.05	274.08	-781.44	415.11	155.34	-807.51	307.53	168.24	-837.9	369.09	172.07	-747.54	359.26	154.12	-950.81	240.25	184.12	-924.18	224.67	267.58	-993.98	274.14	234.91	-1013.8	249.18	269.65	-1018	253.61	205.4	-949.01	91.435	178.44	-922.04	87.964	290.73	-881.05	41.826	243.44	-729.41	1511	311.72	-773.43	1226.8	310.02
148	0.6125	-529.82	1218.1	301.23	-645.85	1450.6	481.97	-664.63	1486.8	148.45	-641.43	1774	339.67	-557.3	1012.4	410.82	-561.19	1001.3	179.68	-761.8	1024.9	336.94	-757.87	1025.3	244.77	-608.5	903.41	484.96	-651.6	887.07	116.01	-654.48	1076.3	456.8	-655.08	1081.1	148.4	-775.46	984.04	292.14	-577.9	699.7	463.85	-479.93	626.21	420.83	-549.33	616.22	438.76	-502.29	715.91	445.53	-491.88	524.75	411.29	-531.79	524.26	290.53	-548.31	336.1	420.81	-488.73	275.55	388.96	-548.01	259.39	410.59	-488.39	353.56	402.13	-552.2	94.964	367.33	-525.24	113.14	289.46	-601.46	64.196	317.96	-586.35	38.165	290	-594.46	38.966	351.49	NaN	NaN	NaN	-401.38	50.14	279.56	-339.41	71.663	326.27	-657.24	674.48	130.79	-559.94	593.1	135.55	-628.76	587.72	139.75	-584.67	678.17	121.1	-613.79	496.68	146.56	-583.54	483.75	274.03	-769.48	417.17	155.07	-797.14	310.02	167.78	-826.37	371.61	171.74	-736.07	361.03	153.91	-940.44	244	183.7	-913.88	228.07	267.2	-982.94	278.59	234.52	-1003.1	253.86	269.28	-1007.3	258.43	205.04	-940.62	94.819	177.79	-913.53	90.771	289.93	-873.32	43.083	242.42	-723.85	1511.6	312.09	-768	1227.4	310.42
149	0.61667	-524.48	1218.5	301.23	-640.05	1451.2	482.15	-659.33	1487.4	148.64	-635.81	1774.5	340.04	-551.94	1012.9	411.12	-556.02	1001.6	179.97	-756.51	1025.5	337.34	-752.73	1025.6	245.15	-603.46	904.06	485.38	-645.9	887.13	116.46	-649.15	1077.1	457.08	-649.92	1081.3	148.65	-770.24	984.5	292.66	-574.26	700.09	464.25	-476.75	625.93	421.26	-546.23	616.43	439.22	-498.49	715.76	445.98	-489.4	524.51	411.64	-529.27	524.34	290.84	-546.94	336.14	420.93	-487.62	275.27	389.14	-547.02	259.43	410.64	-486.9	353.3	402.37	-552.04	95.051	367.29	-524.96	113.2	289.47	-601.39	64.269	317.97	-586.31	38.22	290.01	-594.41	39.043	351.49	NaN	NaN	NaN	-401.29	49.95	279.5	-339.27	71.237	326.24	-648.19	674.43	130.83	-549.88	594.27	135.41	-618.65	587.99	139.72	-575.6	679.07	121	-601.97	497.59	146.2	-571.76	484.66	274.04	-757.52	419.21	154.82	-786.65	312.48	167.37	-814.79	374.06	171.44	-724.54	362.82	153.74	-929.86	247.53	183.34	-903.37	231.28	266.86	-971.84	282.63	234.2	-992.3	258.04	268.95	-996.56	262.79	204.72	-931.59	98.077	177.1	-904.42	93.464	289.11	-864.82	44.505	241.35	-718.28	1512.3	312.44	-762.59	1228.1	310.82
150	0.62083	-519.14	1219	301.2	-634.27	1451.8	482.32	-654.03	1488	148.81	-630.19	1775.1	340.39	-546.59	1013.5	411.4	-550.9	1002	180.24	-751.23	1026.1	337.75	-747.62	1026	245.56	-598.49	904.69	485.78	-640.25	887.28	116.91	-643.8	1077.9	457.37	-644.8	1081.5	148.91	-765.05	984.99	293.21	-570.74	700.48	464.6	-473.69	625.62	421.69	-543.26	616.62	439.66	-494.79	715.6	446.42	-487.05	524.28	411.98	-526.86	524.42	291.12	-545.68	336.18	421.03	-486.59	275.02	389.33	-546.11	259.49	410.67	-485.51	353.06	402.61	-551.88	95.142	367.24	-524.69	113.26	289.47	-601.33	64.342	317.97	-586.27	38.274	290.02	-594.36	39.123	351.5	NaN	NaN	NaN	-401.2	49.781	279.45	-339.12	70.828	326.22	-639.16	674.53	130.9	-539.87	595.59	135.31	-608.58	588.42	139.75	-566.58	680.09	120.92	-590.22	498.67	145.91	-560.16	485.76	274.11	-745.58	421.23	154.6	-776.01	314.88	167.01	-803.15	376.4	171.15	-712.94	364.64	153.61	-919.09	250.81	183.02	-892.66	234.28	266.54	-960.69	286.23	233.92	-981.37	261.72	268.64	-985.64	266.67	204.43	-921.92	101.18	176.38	-894.7	96.012	288.27	-855.56	46.058	240.27	-712.72	1513	312.77	-757.18	1228.8	311.22
151	0.625	-513.82	1219.5	301.16	-628.5	1452.4	482.48	-648.73	1488.5	148.97	-624.56	1775.7	340.73	-541.25	1014.1	411.65	-545.82	1002.5	180.49	-745.96	1026.8	338.19	-742.53	1026.4	245.99	-593.57	905.31	486.16	-634.67	887.51	117.35	-638.43	1078.6	457.66	-639.73	1081.8	149.18	-759.88	985.53	293.78	-567.33	700.88	464.92	-470.75	625.3	422.13	-540.42	616.82	440.07	-491.2	715.41	446.87	-484.82	524.04	412.32	-524.54	524.5	291.39	-544.5	336.23	421.09	-485.63	274.79	389.52	-545.27	259.55	410.68	-484.21	352.83	402.84	-551.73	95.238	367.19	-524.42	113.32	289.46	-601.27	64.416	317.97	-586.22	38.327	290.02	-594.31	39.206	351.5	NaN	NaN	NaN	-401.1	49.628	279.41	-338.97	70.432	326.22	-630.14	674.77	130.98	-529.91	597.05	135.27	-598.57	589	139.83	-557.59	681.24	120.88	-578.56	499.92	145.71	-548.74	487.05	274.22	-733.66	423.21	154.4	-765.21	317.19	166.69	-791.48	378.64	170.88	-701.3	366.46	153.52	-908.13	253.83	182.74	-881.76	237.04	266.26	-949.48	289.38	233.69	-970.32	264.87	268.35	-974.58	270.04	204.17	-911.63	104.09	175.62	-884.41	98.385	287.42	-845.55	47.706	239.16	-707.15	1513.7	313.07	-751.79	1229.5	311.61
152	0.62917	-508.51	1220	301.1	-622.75	1453	482.63	-643.43	1489.2	149.11	-618.93	1776.4	341.05	-535.91	1014.7	411.88	-540.78	1002.9	180.73	-740.69	1027.5	338.65	-737.47	1026.9	246.45	-588.71	905.92	486.51	-629.15	887.83	117.77	-633.03	1079.4	457.96	-634.7	1082.2	149.46	-754.72	986.1	294.36	-564.03	701.28	465.2	-467.92	624.97	422.57	-537.69	617.02	440.48	-487.71	715.21	447.31	-482.7	523.82	412.64	-522.3	524.59	291.63	-543.41	336.29	421.14	-484.74	274.58	389.71	-544.5	259.62	410.66	-483	352.63	403.07	-551.58	95.339	367.13	-524.15	113.39	289.45	-601.21	64.494	317.95	-586.18	38.382	290.02	-594.26	39.294	351.5	NaN	NaN	NaN	-401	49.487	279.37	-338.81	70.042	326.22	-621.15	675.15	131.09	-520	598.65	135.27	-588.59	589.74	139.97	-548.66	682.51	120.87	-566.99	501.32	145.59	-537.51	488.5	274.38	-721.77	425.14	154.24	-754.23	319.41	166.42	-779.79	380.74	170.64	-689.63	368.28	153.47	-896.97	256.56	182.51	-870.67	239.55	266.01	-938.22	292.08	233.5	-959.16	267.5	268.08	-963.38	272.91	203.92	-900.73	106.78	174.83	-873.55	100.55	286.55	-834.82	49.41	238.05	-701.58	1514.4	313.36	-746.41	1230.2	312.01
153	0.63333	-503.21	1220.6	301.04	-617.02	1453.6	482.77	-638.13	1489.8	149.23	-613.29	1777	341.36	-530.58	1015.3	412.09	-535.78	1003.5	180.95	-735.44	1028.2	339.13	-732.42	1027.4	246.93	-583.89	906.52	486.85	-623.67	888.23	118.19	-627.62	1080.1	458.25	-629.71	1082.6	149.76	-749.58	986.71	294.96	-560.82	701.69	465.45	-465.19	624.64	423.01	-535.05	617.22	440.87	-484.31	715	447.75	-480.69	523.6	412.97	-520.13	524.68	291.86	-542.4	336.35	421.16	-483.91	274.4	389.91	-543.8	259.7	410.63	-481.87	352.45	403.3	-551.42	95.446	367.07	-523.89	113.46	289.42	-601.15	64.575	317.94	-586.13	38.438	290.01	-594.21	39.388	351.49	NaN	NaN	NaN	-400.89	49.355	279.34	-338.65	69.654	326.23	-612.17	675.67	131.21	-510.14	600.39	135.33	-578.66	590.63	140.16	-539.77	683.91	120.89	-555.53	502.87	145.55	-526.44	490.11	274.59	-709.94	427.02	154.11	-743.08	321.5	166.2	-768.09	382.71	170.43	-677.92	370.09	153.47	-885.62	258.99	182.32	-859.39	241.78	265.78	-926.91	294.32	233.35	-947.89	269.61	267.81	-952.05	275.28	203.69	-889.25	109.23	174.01	-862.17	102.5	285.68	-823.39	51.128	236.94	-696.02	1515.2	313.63	-741.03	1231	312.41
